<svg width="17" height="19" viewBox="0 0 17 19" fill="none" xmlns="http://www.w3.org/2000/svg">
<path d="M7.26357 6.82785C7.04982 6.62141 6.76354 6.50717 6.46638 6.50975C6.16923 6.51234 5.88497 6.63153 5.67484 6.84166C5.46471 7.05179 5.34552 7.33604 5.34294 7.6332C5.34036 7.93035 5.45459 8.21663 5.66104 8.43038L7.9277 10.6971C8.14023 10.9095 8.42845 11.0289 8.72897 11.0289C9.02949 11.0289 9.3177 10.9095 9.53024 10.6971L11.7969 8.43038C12.0033 8.21663 12.1176 7.93035 12.115 7.6332C12.1124 7.33604 11.9932 7.05179 11.7831 6.84166C11.573 6.63153 11.2887 6.51234 10.9916 6.50975C10.6944 6.50717 10.4081 6.62141 10.1944 6.82785L9.8623 7.15992V1.96245C9.8623 1.66187 9.7429 1.3736 9.53036 1.16106C9.31782 0.948521 9.02955 0.829117 8.72897 0.829117C8.42839 0.829117 8.14012 0.948521 7.92758 1.16106C7.71504 1.3736 7.59564 1.66187 7.59564 1.96245V7.15992L7.26357 6.82785Z" fill="#FD6E6B"/>
<path d="M0.795654 4.22911C0.795654 3.62796 1.03446 3.05142 1.45955 2.62634C1.88463 2.20126 2.46116 1.96245 3.06232 1.96245H4.19565C4.49623 1.96245 4.7845 2.08185 4.99704 2.29439C5.20958 2.50693 5.32899 2.7952 5.32899 3.09578C5.32899 3.39636 5.20958 3.68463 4.99704 3.89717C4.7845 4.10971 4.49623 4.22911 4.19565 4.22911H3.06232V12.1624H5.32899L6.46232 14.4291H10.9957L12.129 12.1624H14.3957V4.22911H13.2623C12.9617 4.22911 12.6735 4.10971 12.4609 3.89717C12.2484 3.68463 12.129 3.39636 12.129 3.09578C12.129 2.7952 12.2484 2.50693 12.4609 2.29439C12.6735 2.08185 12.9617 1.96245 13.2623 1.96245H14.3957C14.9968 1.96245 15.5733 2.20126 15.9984 2.62634C16.4235 3.05142 16.6623 3.62796 16.6623 4.22911V15.5624C16.6623 16.1636 16.4235 16.7401 15.9984 17.1652C15.5733 17.5903 14.9968 17.8291 14.3957 17.8291H3.06232C2.46116 17.8291 1.88463 17.5903 1.45955 17.1652C1.03446 16.7401 0.795654 16.1636 0.795654 15.5624V4.22911Z" fill="#FD6E6B"/>
</svg>
